# xmcd CD database file
#
# Track frame offsets:
#	150
#	18875
#	40130
#
# Disc length: 781 seconds
#
# Revision: 0
# Processed by: cddbd v1.5.1PL0 Copyright (c) Steve Scherf et al.
# Submitted via: CDex 1.51
#
DISCID=17030b03
DTITLE=星村 麻衣 - 素直になれない
DYEAR=2005
DGENRE=JPop
TTITLE0=素直になれない
TTITLE1=プラスティック・ラブ
TTITLE2=素直になれない (Instrumental)
EXTD=YEAR: 2005
EXTT0=
EXTT1=
EXTT2=
PLAYORDER=
